<svg xmlns="http://www.w3.org/2000/svg" viewBox="0 0 64 64" role="img" aria-hidden="true">
  <path d="M22 8 C18 14 14 24 14 32 C14 42 18 54 26 60 C30 62 34 62 38 60 C46 54 50 42 50 32 C50 24 46 14 42 8 C40 5 36 4 32 4 C28 4 24 5 22 8 Z" fill="#A9C955"/>
  <g fill="#8FB53F">
    <ellipse cx="22" cy="18" rx="2.4" ry="3.2"/>
    <ellipse cx="30" cy="14" rx="2.4" ry="3.2"/>
    <ellipse cx="40" cy="20" rx="2.4" ry="3.2"/>
    <ellipse cx="20" cy="30" rx="2.4" ry="3.2"/>
    <ellipse cx="32" cy="26" rx="2.4" ry="3.2"/>
    <ellipse cx="44" cy="32" rx="2.4" ry="3.2"/>
    <ellipse cx="24" cy="42" rx="2.4" ry="3.2"/>
    <ellipse cx="36" cy="40" rx="2.4" ry="3.2"/>
    <ellipse cx="42" cy="46" rx="2.4" ry="3.2"/>
    <ellipse cx="30" cy="52" rx="2.4" ry="3.2"/>
  </g>
  <path d="M28 5 C27 3 30 2 32 3 C34 2 37 3 36 5 C34 7 30 7 28 5 Z" fill="#5C8A2E"/>
  <ellipse cx="24" cy="16" rx="4" ry="8" fill="#C3DC85" opacity="0.45"/>
</svg>
