<svg xmlns="http://www.w3.org/2000/svg" viewBox="0 0 64 64" role="img" aria-hidden="true">
  <path d="M14 42 C10 38 9 32 12 28 C17 32 20 36 22 42 Z" fill="#1F6FB2"/>
  <ellipse cx="30" cy="38" rx="15" ry="11" fill="#2C86D6"/>
  <path d="M20 42 C26 46 34 46 38 40 C32 44 24 45 20 42 Z" fill="#F0924A"/>
  <path d="M20 32 C26 28 34 28 38 34 C32 34 26 36 22 40 Z" fill="#1F6FB2"/>
  <circle cx="45" cy="24" r="10" fill="#2C86D6"/>
  <path d="M45 30 C43 34 41 36 38 37 C42 34 43 31 43 27 Z" fill="#F0924A"/>
  <path d="M54 23 L63 24 L54 27 Z" fill="#2B2B2E"/>
  <circle cx="48" cy="21" r="1.7" fill="#111111"/>
  <path d="M26 48 L24 56 M34 48 L36 56" stroke="#E67A2E" stroke-width="2" stroke-linecap="round"/>
</svg>
